<?xml version="1.0" standalone="no"?>
 <!DOCTYPE svg PUBLIC "-//W3C//DTD SVG 1.1//EN" 
 "http://www.w3.org/Graphics/SVG/1.1/DTD/svg11.dtd"> 
<svg
  xmlns:svg="http://www.w3.org/2000/svg"
  xmlns="http://www.w3.org/2000/svg"
  xmlns:xlink="http://www.w3.org/1999/xlink"
  version="1.1"
  width="18.854420cm" height="13.129260cm" viewBox="0 0 188544200 131292600">
<title>SVG Picture created as MozzaBottom-Edge_Cuts.svg date 2023/06/04 00:19:57 </title>
  <desc>Picture generated by PCBNEW </desc>
<g style="fill:#000000; fill-opacity:1.000000;stroke:#000000; stroke-opacity:1.000000;
stroke-linecap:round; stroke-linejoin:round;"
 transform="translate(0 0) scale(1 1)">
</g>
<g style="fill:#000000; fill-opacity:0.0; 
stroke:#000000; stroke-width:0.000000; stroke-opacity:1; 
stroke-linecap:round; stroke-linejoin:round;">
</g>
<g style="fill:#000000; fill-opacity:0.0; 
stroke:#000000; stroke-width:120000.000000; stroke-opacity:1; 
stroke-linecap:round; stroke-linejoin:round;">
<circle cx="148947000.000000" cy="111828000.000000" r="2600000.000000" /> 
<circle cx="164608000.000000" cy="97875000.000000" r="2600000.000000" /> 
<circle cx="169323000.000000" cy="81370000.000000" r="2600000.000000" /> 
<circle cx="148767000.000000" cy="88438000.000000" r="2600000.000000" /> 
<circle cx="153482000.000000" cy="71934000.000000" r="2600000.000000" /> 
<circle cx="158196000.000000" cy="55429000.000000" r="2600000.000000" /> 
<circle cx="127378000.000000" cy="100077000.000000" r="2600000.000000" /> 
<circle cx="132926000.000000" cy="79002000.000000" r="2600000.000000" /> 
<circle cx="137641000.000000" cy="62497000.000000" r="2600000.000000" /> 
<circle cx="142356000.000000" cy="45993000.000000" r="2600000.000000" /> 
<circle cx="112976000.000000" cy="82921000.000000" r="2600000.000000" /> 
<circle cx="117734000.000000" cy="66327000.000000" r="2600000.000000" /> 
<circle cx="122492000.000000" cy="49734000.000000" r="2600000.000000" /> 
<circle cx="127250000.000000" cy="33140000.000000" r="2600000.000000" /> 
<circle cx="97302000.000000" cy="75612000.000000" r="2600000.000000" /> 
<circle cx="101478000.000000" cy="58863000.000000" r="2600000.000000" /> 
<circle cx="105654000.000000" cy="42113000.000000" r="2600000.000000" /> 
<circle cx="109831000.000000" cy="25364000.000000" r="2600000.000000" /> 
<circle cx="62547000.000000" cy="100523000.000000" r="2600000.000000" /> 
<circle cx="78515000.000000" cy="70578000.000000" r="2600000.000000" /> 
<circle cx="82069000.000000" cy="53858000.000000" r="2600000.000000" /> 
<circle cx="85623000.000000" cy="37138000.000000" r="2600000.000000" /> 
<circle cx="89177000.000000" cy="20418000.000000" r="2599999.000000" /> 
<circle cx="43116000.000000" cy="101547000.000000" r="2600000.000000" /> 
<circle cx="61608000.000000" cy="68801000.000000" r="2600000.000000" /> 
<circle cx="65162000.000000" cy="52081000.000000" r="2600000.000000" /> 
<circle cx="68716000.000000" cy="35361000.000000" r="2600000.000000" /> 
<circle cx="72270000.000000" cy="18641000.000000" r="2600000.000000" /> 
<circle cx="24322999.000000" cy="106588000.000000" r="2600001.000000" /> 
<circle cx="45504000.000000" cy="57965000.000000" r="2600000.000000" /> 
<circle cx="49105000.000000" cy="41126000.000000" r="2600000.000000" /> 
<path d="M92198000 101921000
L92303000 100926000
" />
<path d="M92193000 102003000
L92198000 101921000
" />
<path d="M92195000 102084000
L92193000 102003000
" />
<path d="M92202000 102163000
L92195000 102084000
" />
<path d="M92216000 102241000
L92202000 102163000
" />
<path d="M92235999 102316000
L92216000 102241000
" />
<path d="M92261000 102390000
L92235999 102316000
" />
<path d="M92292000 102460000
L92261000 102390000
" />
<path d="M92329000 102528000
L92292000 102460000
" />
<path d="M92370000 102593000
L92329000 102528000
" />
<path d="M92416000 102655000
L92370000 102593000
" />
<path d="M92466000 102712000
L92416000 102655000
" />
<path d="M92520999 102766000
L92466000 102712000
" />
<path d="M92580000 102816000
L92520999 102766000
" />
<path d="M92643000 102861000
L92580000 102816000
" />
<path d="M92710000 102901000
L92643000 102861000
" />
<path d="M92779000 102936000
L92710000 102901000
" />
<path d="M92853000 102966000
L92779000 102936000
" />
<path d="M92929000 102990000
L92853000 102966000
" />
<path d="M93007000 103008000
L92929000 102990000
" />
<path d="M93088000 103020000
L93007000 103008000
" />
<path d="M93485999 103062000
L93088000 103020000
" />
<path d="M93883999 103104000
L93485999 103062000
" />
<path d="M93966000 103109000
L93883999 103104000
" />
<path d="M94047000 103107000
L93966000 103109000
" />
<path d="M94126000 103100000
L94047000 103107000
" />
<path d="M94204000 103086000
L94126000 103100000
" />
<path d="M94279000 103066000
L94204000 103086000
" />
<path d="M94353000 103041000
L94279000 103066000
" />
<path d="M94424000 103010000
L94353000 103041000
" />
<path d="M94492000 102973000
L94424000 103010000
" />
<path d="M94556000 102932000
L94492000 102973000
" />
<path d="M94618000 102886000
L94556000 102932000
" />
<path d="M94676000 102836000
L94618000 102886000
" />
<path d="M94730000 102781000
L94676000 102836000
" />
<path d="M94779000 102722000
L94730000 102781000
" />
<path d="M94824000 102659000
L94779000 102722000
" />
<path d="M94864000 102592000
L94824000 102659000
" />
<path d="M94899000 102523000
L94864000 102592000
" />
<path d="M94929000 102449000
L94899000 102523000
" />
<path d="M94953000 102373000
L94929000 102449000
" />
<path d="M94971000 102295000
L94953000 102373000
" />
<path d="M94983000 102214000
L94971000 102295000
" />
<path d="M95088000 101219000
L94983000 102214000
" />
<path d="M95192000 100224000
L95088000 101219000
" />
<path d="M95197000 100143000
L95192000 100224000
" />
<path d="M95196000 100062000
L95197000 100143000
" />
<path d="M95188000 99982000
L95196000 100062000
" />
<path d="M95175000 99905000
L95188000 99982000
" />
<path d="M95155000 99829000
L95175000 99905000
" />
<path d="M95129000 99756000
L95155000 99829000
" />
<path d="M95098000 99685000
L95129000 99756000
" />
<path d="M95062000 99617000
L95098000 99685000
" />
<path d="M95021000 99552000
L95062000 99617000
" />
<path d="M94975000 99491000
L95021000 99552000
" />
<path d="M94924000 99433000
L94975000 99491000
" />
<path d="M94869000 99379000
L94924000 99433000
" />
<path d="M94810000 99330000
L94869000 99379000
" />
<path d="M94748000 99284000
L94810000 99330000
" />
<path d="M94681000 99244000
L94748000 99284000
" />
<path d="M94611000 99209000
L94681000 99244000
" />
<path d="M94538000 99179000
L94611000 99209000
" />
<path d="M94462000 99155000
L94538000 99179000
" />
<path d="M94383000 99137000
L94462000 99155000
" />
<path d="M94302000 99125000
L94383000 99137000
" />
<path d="M93904000 99084000
L94302000 99125000
" />
<path d="M93507000 99042000
L93904000 99084000
" />
<path d="M93425000 99037000
L93507000 99042000
" />
<path d="M93344000 99038000
L93425000 99037000
" />
<path d="M93264999 99046000
L93344000 99038000
" />
<path d="M93187000 99059000
L93264999 99046000
" />
<path d="M93110999 99079000
L93187000 99059000
" />
<path d="M93038000 99105000
L93110999 99079000
" />
<path d="M92967000 99136000
L93038000 99105000
" />
<path d="M92899000 99172000
L92967000 99136000
" />
<path d="M92834000 99213000
L92899000 99172000
" />
<path d="M92773000 99259000
L92834000 99213000
" />
<path d="M92715000 99310000
L92773000 99259000
" />
<path d="M92661000 99365000
L92715000 99310000
" />
<path d="M92612000 99424000
L92661000 99365000
" />
<path d="M92567000 99486000
L92612000 99424000
" />
<path d="M92526000 99553000
L92567000 99486000
" />
<path d="M92490999 99623000
L92526000 99553000
" />
<path d="M92461999 99696000
L92490999 99623000
" />
<path d="M92437999 99772000
L92461999 99696000
" />
<path d="M92419000 99851000
L92437999 99772000
" />
<path d="M92407999 99932000
L92419000 99851000
" />
<path d="M92303000 100926000
L92407999 99932000
" />
<path d="M91027999 113060000
L91132000 112065000
" />
<path d="M91023000 113141000
L91027999 113060000
" />
<path d="M91024000 113221999
L91023000 113141000
" />
<path d="M91032000 113302000
L91024000 113221999
" />
<path d="M91044999 113379000
L91032000 113302000
" />
<path d="M91065000 113454999
L91044999 113379000
" />
<path d="M91091000 113528000
L91065000 113454999
" />
<path d="M91121999 113599000
L91091000 113528000
" />
<path d="M91157999 113667000
L91121999 113599000
" />
<path d="M91199000 113732000
L91157999 113667000
" />
<path d="M91245000 113793000
L91199000 113732000
" />
<path d="M91296000 113851000
L91245000 113793000
" />
<path d="M91351000 113905000
L91296000 113851000
" />
<path d="M91410000 113953999
L91351000 113905000
" />
<path d="M91472000 114000000
L91410000 113953999
" />
<path d="M91538999 114040000
L91472000 114000000
" />
<path d="M91609000 114075000
L91538999 114040000
" />
<path d="M91681999 114105000
L91609000 114075000
" />
<path d="M91758000 114129000
L91681999 114105000
" />
<path d="M91836999 114147000
L91758000 114129000
" />
<path d="M91918000 114159000
L91836999 114147000
" />
<path d="M92316000 114200000
L91918000 114159000
" />
<path d="M92713000 114242000
L92316000 114200000
" />
<path d="M92794999 114247000
L92713000 114242000
" />
<path d="M92876000 114245999
L92794999 114247000
" />
<path d="M92955000 114238000
L92876000 114245999
" />
<path d="M93032999 114225000
L92955000 114238000
" />
<path d="M93109000 114204999
L93032999 114225000
" />
<path d="M93181999 114179000
L93109000 114204999
" />
<path d="M93252999 114148000
L93181999 114179000
" />
<path d="M93321000 114112000
L93252999 114148000
" />
<path d="M93386000 114071000
L93321000 114112000
" />
<path d="M93447000 114025000
L93386000 114071000
" />
<path d="M93505000 113974000
L93447000 114025000
" />
<path d="M93559000 113918999
L93505000 113974000
" />
<path d="M93608000 113860000
L93559000 113918999
" />
<path d="M93652999 113798000
L93608000 113860000
" />
<path d="M93693999 113731000
L93652999 113798000
" />
<path d="M93728999 113661000
L93693999 113731000
" />
<path d="M93758000 113588000
L93728999 113661000
" />
<path d="M93782000 113512000
L93758000 113588000
" />
<path d="M93800999 113433000
L93782000 113512000
" />
<path d="M93812000 113352000
L93800999 113433000
" />
<path d="M93917000 112358000
L93812000 113352000
" />
<path d="M94020999 111363000
L93917000 112358000
" />
<path d="M94026999 111281000
L94020999 111363000
" />
<path d="M94025000 111200000
L94026999 111281000
" />
<path d="M94018000 111120999
L94025000 111200000
" />
<path d="M94003999 111043000
L94018000 111120999
" />
<path d="M93984000 110968000
L94003999 111043000
" />
<path d="M93959000 110894000
L93984000 110968000
" />
<path d="M93928000 110823999
L93959000 110894000
" />
<path d="M93890999 110756000
L93928000 110823999
" />
<path d="M93850000 110691000
L93890999 110756000
" />
<path d="M93804000 110629000
L93850000 110691000
" />
<path d="M93753999 110572000
L93804000 110629000
" />
<path d="M93699000 110518000
L93753999 110572000
" />
<path d="M93639999 110468000
L93699000 110518000
" />
<path d="M93577000 110423000
L93639999 110468000
" />
<path d="M93509999 110382999
L93577000 110423000
" />
<path d="M93441000 110347999
L93509999 110382999
" />
<path d="M93366999 110317999
L93441000 110347999
" />
<path d="M93291000 110293999
L93366999 110317999
" />
<path d="M93213000 110275999
L93291000 110293999
" />
<path d="M93132000 110263999
L93213000 110275999
" />
<path d="M92734000 110221999
L93132000 110263999
" />
<path d="M92336000 110179999
L92734000 110221999
" />
<path d="M92253999 110174999
L92336000 110179999
" />
<path d="M92173000 110177000
L92253999 110174999
" />
<path d="M92094000 110184000
L92173000 110177000
" />
<path d="M92015999 110197999
L92094000 110184000
" />
<path d="M91941000 110218000
L92015999 110197999
" />
<path d="M91866999 110243000
L91941000 110218000
" />
<path d="M91796000 110274000
L91866999 110243000
" />
<path d="M91728000 110310999
L91796000 110274000
" />
<path d="M91663999 110352000
L91728000 110310999
" />
<path d="M91602000 110398000
L91663999 110352000
" />
<path d="M91544000 110447999
L91602000 110398000
" />
<path d="M91490000 110503000
L91544000 110447999
" />
<path d="M91441000 110561999
L91490000 110503000
" />
<path d="M91395999 110625000
L91441000 110561999
" />
<path d="M91356000 110691999
L91395999 110625000
" />
<path d="M91321000 110761000
L91356000 110691999
" />
<path d="M91291000 110834999
L91321000 110761000
" />
<path d="M91267000 110911000
L91291000 110834999
" />
<path d="M91249000 110989000
L91267000 110911000
" />
<path d="M91237000 111070000
L91249000 110989000
" />
<path d="M91132000 112065000
L91237000 111070000
" />
<path d="M57639000 27745000
L57494000 28118000
" />
<path d="M57679000 27628000
L57639000 27745000
" />
<path d="M57709000 27511000
L57679000 27628000
" />
<path d="M57729000 27393000
L57709000 27511000
" />
<path d="M57739000 27275000
L57729000 27393000
" />
<path d="M57740000 27158000
L57739000 27275000
" />
<path d="M57732000 27041000
L57740000 27158000
" />
<path d="M57715000 26927000
L57732000 27041000
" />
<path d="M57689000 26814000
L57715000 26927000
" />
<path d="M57655000 26704000
L57689000 26814000
" />
<path d="M57613000 26597000
L57655000 26704000
" />
<path d="M57562000 26493000
L57613000 26597000
" />
<path d="M57504000 26394000
L57562000 26493000
" />
<path d="M57438000 26299000
L57504000 26394000
" />
<path d="M57365000 26209000
L57438000 26299000
" />
<path d="M57285000 26125000
L57365000 26209000
" />
<path d="M57197000 26047000
L57285000 26125000
" />
<path d="M57103000 25975000
L57197000 26047000
" />
<path d="M57003000 25910000
L57103000 25975000
" />
<path d="M56896000 25853000
L57003000 25910000
" />
<path d="M56783000 25804000
L56896000 25853000
" />
<path d="M56470000 25683000
L56783000 25804000
" />
<path d="M56158000 25561000
L56470000 25683000
" />
<path d="M56042000 25522000
L56158000 25561000
" />
<path d="M55924000 25492000
L56042000 25522000
" />
<path d="M55806000 25472000
L55924000 25492000
" />
<path d="M55688000 25461000
L55806000 25472000
" />
<path d="M55571000 25460000
L55688000 25461000
" />
<path d="M55455000 25468000
L55571000 25460000
" />
<path d="M55340000 25485000
L55455000 25468000
" />
<path d="M55228000 25511000
L55340000 25485000
" />
<path d="M55117000 25545000
L55228000 25511000
" />
<path d="M55010000 25588000
L55117000 25545000
" />
<path d="M54907000 25638000
L55010000 25588000
" />
<path d="M54807000 25696000
L54907000 25638000
" />
<path d="M54712000 25762000
L54807000 25696000
" />
<path d="M54623000 25835000
L54712000 25762000
" />
<path d="M54538000 25916000
L54623000 25835000
" />
<path d="M54460000 26003000
L54538000 25916000
" />
<path d="M54388000 26097000
L54460000 26003000
" />
<path d="M54324000 26198000
L54388000 26097000
" />
<path d="M54266000 26305000
L54324000 26198000
" />
<path d="M54217000 26418000
L54266000 26305000
" />
<path d="M54073000 26790000
L54217000 26418000
" />
<path d="M53928000 27163000
L54073000 26790000
" />
<path d="M53888000 27280000
L53928000 27163000
" />
<path d="M53858000 27397000
L53888000 27280000
" />
<path d="M53838000 27515000
L53858000 27397000
" />
<path d="M53828000 27633000
L53838000 27515000
" />
<path d="M53827000 27750000
L53828000 27633000
" />
<path d="M53835000 27867000
L53827000 27750000
" />
<path d="M53852000 27981000
L53835000 27867000
" />
<path d="M53877000 28094000
L53852000 27981000
" />
<path d="M53912000 28204000
L53877000 28094000
" />
<path d="M53954000 28311000
L53912000 28204000
" />
<path d="M54004000 28415000
L53954000 28311000
" />
<path d="M54063000 28514000
L54004000 28415000
" />
<path d="M54129000 28609000
L54063000 28514000
" />
<path d="M54202000 28699000
L54129000 28609000
" />
<path d="M54282000 28783000
L54202000 28699000
" />
<path d="M54370000 28862000
L54282000 28783000
" />
<path d="M54464000 28933000
L54370000 28862000
" />
<path d="M54564000 28998000
L54464000 28933000
" />
<path d="M54671000 29055000
L54564000 28998000
" />
<path d="M54784000 29104000
L54671000 29055000
" />
<path d="M55096000 29225000
L54784000 29104000
" />
<path d="M55409000 29347000
L55096000 29225000
" />
<path d="M55525000 29386000
L55409000 29347000
" />
<path d="M55643000 29416000
L55525000 29386000
" />
<path d="M55760000 29436000
L55643000 29416000
" />
<path d="M55878000 29447000
L55760000 29436000
" />
<path d="M55996000 29448000
L55878000 29447000
" />
<path d="M56112000 29440000
L55996000 29448000
" />
<path d="M56227000 29423000
L56112000 29440000
" />
<path d="M56339000 29397000
L56227000 29423000
" />
<path d="M56449000 29363000
L56339000 29397000
" />
<path d="M56556000 29321000
L56449000 29363000
" />
<path d="M56660000 29270000
L56556000 29321000
" />
<path d="M56759000 29212000
L56660000 29270000
" />
<path d="M56854000 29146000
L56759000 29212000
" />
<path d="M56944000 29073000
L56854000 29146000
" />
<path d="M57029000 28992000
L56944000 29073000
" />
<path d="M57107000 28905000
L57029000 28992000
" />
<path d="M57179000 28811000
L57107000 28905000
" />
<path d="M57243000 28710000
L57179000 28811000
" />
<path d="M57300000 28603000
L57243000 28710000
" />
<path d="M57350000 28491000
L57300000 28603000
" />
<path d="M57494000 28118000
L57350000 28491000
" />
<path d="M46982000 23611000
L46838000 23984000
" />
<path d="M47022000 23495000
L46982000 23611000
" />
<path d="M47052000 23377000
L47022000 23495000
" />
<path d="M47072000 23259000
L47052000 23377000
" />
<path d="M47083000 23142000
L47072000 23259000
" />
<path d="M47084000 23024000
L47083000 23142000
" />
<path d="M47076000 22908000
L47084000 23024000
" />
<path d="M47059000 22793000
L47076000 22908000
" />
<path d="M47033000 22681000
L47059000 22793000
" />
<path d="M46999000 22571000
L47033000 22681000
" />
<path d="M46956000 22464000
L46999000 22571000
" />
<path d="M46906000 22360000
L46956000 22464000
" />
<path d="M46848000 22261000
L46906000 22360000
" />
<path d="M46782000 22166000
L46848000 22261000
" />
<path d="M46708000 22076000
L46782000 22166000
" />
<path d="M46628000 21991000
L46708000 22076000
" />
<path d="M46541000 21913000
L46628000 21991000
" />
<path d="M46447000 21841000
L46541000 21913000
" />
<path d="M46346000 21777000
L46447000 21841000
" />
<path d="M46239000 21720000
L46346000 21777000
" />
<path d="M46126000 21670000
L46239000 21720000
" />
<path d="M45814000 21549000
L46126000 21670000
" />
<path d="M45502000 21428000
L45814000 21549000
" />
<path d="M45385000 21388000
L45502000 21428000
" />
<path d="M45268000 21358000
L45385000 21388000
" />
<path d="M45150000 21338000
L45268000 21358000
" />
<path d="M45032000 21328000
L45150000 21338000
" />
<path d="M44915000 21327000
L45032000 21328000
" />
<path d="M44798000 21335000
L44915000 21327000
" />
<path d="M44684000 21352000
L44798000 21335000
" />
<path d="M44571000 21378000
L44684000 21352000
" />
<path d="M44461000 21412000
L44571000 21378000
" />
<path d="M44354000 21454000
L44461000 21412000
" />
<path d="M44250000 21505000
L44354000 21454000
" />
<path d="M44151000 21563000
L44250000 21505000
" />
<path d="M44056000 21629000
L44151000 21563000
" />
<path d="M43966000 21702000
L44056000 21629000
" />
<path d="M43882000 21782000
L43966000 21702000
" />
<path d="M43804000 21870000
L43882000 21782000
" />
<path d="M43732000 21964000
L43804000 21870000
" />
<path d="M43667000 22064000
L43732000 21964000
" />
<path d="M43610000 22171000
L43667000 22064000
" />
<path d="M43561000 22284000
L43610000 22171000
" />
<path d="M43416000 22657000
L43561000 22284000
" />
<path d="M43271000 23030000
L43416000 22657000
" />
<path d="M43232000 23147000
L43271000 23030000
" />
<path d="M43202000 23264000
L43232000 23147000
" />
<path d="M43182000 23382000
L43202000 23264000
" />
<path d="M43171000 23500000
L43182000 23382000
" />
<path d="M43170000 23617000
L43171000 23500000
" />
<path d="M43178000 23733000
L43170000 23617000
" />
<path d="M43195000 23848000
L43178000 23733000
" />
<path d="M43221000 23961000
L43195000 23848000
" />
<path d="M43255000 24071000
L43221000 23961000
" />
<path d="M43298000 24178000
L43255000 24071000
" />
<path d="M43348000 24281000
L43298000 24178000
" />
<path d="M43406000 24381000
L43348000 24281000
" />
<path d="M43472000 24476000
L43406000 24381000
" />
<path d="M43545000 24566000
L43472000 24476000
" />
<path d="M43626000 24650000
L43545000 24566000
" />
<path d="M43713000 24728000
L43626000 24650000
" />
<path d="M43807000 24800000
L43713000 24728000
" />
<path d="M43908000 24865000
L43807000 24800000
" />
<path d="M44015000 24922000
L43908000 24865000
" />
<path d="M44128000 24971000
L44015000 24922000
" />
<path d="M44440000 25092000
L44128000 24971000
" />
<path d="M44752000 25213000
L44440000 25092000
" />
<path d="M44869000 25253000
L44752000 25213000
" />
<path d="M44986000 25283000
L44869000 25253000
" />
<path d="M45104000 25303000
L44986000 25283000
" />
<path d="M45222000 25313000
L45104000 25303000
" />
<path d="M45339000 25314000
L45222000 25313000
" />
<path d="M45455000 25306000
L45339000 25314000
" />
<path d="M45570000 25289000
L45455000 25306000
" />
<path d="M45683000 25264000
L45570000 25289000
" />
<path d="M45793000 25230000
L45683000 25264000
" />
<path d="M45900000 25187000
L45793000 25230000
" />
<path d="M46003000 25137000
L45900000 25187000
" />
<path d="M46103000 25078000
L46003000 25137000
" />
<path d="M46198000 25013000
L46103000 25078000
" />
<path d="M46288000 24939000
L46198000 25013000
" />
<path d="M46372000 24859000
L46288000 24939000
" />
<path d="M46450000 24772000
L46372000 24859000
" />
<path d="M46522000 24677000
L46450000 24772000
" />
<path d="M46587000 24577000
L46522000 24677000
" />
<path d="M46644000 24470000
L46587000 24577000
" />
<path d="M46693000 24357000
L46644000 24470000
" />
<path d="M46838000 23984000
L46693000 24357000
" />
</g>
<g style="fill:#000000; fill-opacity:0.0; 
stroke:#000000; stroke-width:3048.000000; stroke-opacity:1; 
stroke-linecap:round; stroke-linejoin:round;">
<path d="M157387961 21922500
L157389000 21923000
" />
</g>
<g style="fill:#000000; fill-opacity:0.0; 
stroke:#000000; stroke-width:120000.000000; stroke-opacity:1; 
stroke-linecap:round; stroke-linejoin:round;">
<path d="M157387960.835356 21922500.095057 A43725000.000000 43725000.000000 0.0 0 0 119521000.000000 60000.000000" />
<path d="M94276000 60000
L119521000 60000
" />
<path d="M170011000 43785000
L157389000 21923000
" />
</g>
<g style="fill:#000000; fill-opacity:0.0; 
stroke:#000000; stroke-width:3048.000000; stroke-opacity:1; 
stroke-linecap:round; stroke-linejoin:round;">
<path d="M144765913 131237150
L144766000 131237000
" />
</g>
<g style="fill:#000000; fill-opacity:0.0; 
stroke:#000000; stroke-width:120000.000000; stroke-opacity:1; 
stroke-linecap:round; stroke-linejoin:round;">
<path d="M144765913.000000 131237149.999913 A43726150.000000 43726150.000000 0.0 0 0 182634000.008145 65647999.995297" />
<path d="M170011000 43785000
L182634000 65648000
" />
<path d="M94276000 131237000
L144766000 131237000
" />
</g>
<g style="fill:#000000; fill-opacity:0.0; 
stroke:#000000; stroke-width:3048.000000; stroke-opacity:1; 
stroke-linecap:round; stroke-linejoin:round;">
<path d="M5918173 65648000
L5919000 65648000
" />
</g>
<g style="fill:#000000; fill-opacity:0.0; 
stroke:#000000; stroke-width:120000.000000; stroke-opacity:1; 
stroke-linecap:round; stroke-linejoin:round;">
<path d="M5918173.145591 65648000.084057 A43726000.000000 43726000.000000 0.0 0 0 43786000.000000 131237000.000000" />
<path d="M94276000 131237000
L43786000 131237000
" />
<path d="M18541000 43785000
L5919000 65648000
" />
</g>
<g style="fill:#000000; fill-opacity:0.0; 
stroke:#000000; stroke-width:3048.000000; stroke-opacity:1; 
stroke-linecap:round; stroke-linejoin:round;">
<path d="M69030547 60216
L69031000 60000
" />
</g>
<g style="fill:#000000; fill-opacity:0.0; 
stroke:#000000; stroke-width:120000.000000; stroke-opacity:1; 
stroke-linecap:round; stroke-linejoin:round;">
<path d="M69030547.000000 60216.002347 A43724784.000000 43724784.000000 0.0 0 0 31163999.971809 21922999.983724" />
<path d="M18541000 43785000
L31164000 21923000
" />
<path d="M94276000 60000
L69031000 60000
" />
<g >
</g>
<g >
</g>
<g >
</g>
<g >
</g>
<g >
</g>
<g >
</g>
<g >
</g>
<g >
</g>
<g >
</g>
<g >
</g>
<g >
</g>
</g> 
</svg>
